<?xml version="1.0" encoding="UTF-8" standalone="no"?>
<!DOCTYPE svg PUBLIC "-//W3C//DTD SVG 1.1//EN"
 "http://www.w3.org/Graphics/SVG/1.1/DTD/svg11.dtd">
<!-- Generated by graphviz version 2.43.0 (0)
 -->
<!-- Title: G Pages: 1 -->
<svg width="847pt" height="978pt"
 viewBox="0.00 0.00 847.00 978.00" xmlns="http://www.w3.org/2000/svg" xmlns:xlink="http://www.w3.org/1999/xlink">
<g id="graph0" class="graph" transform="scale(1 1) rotate(0) translate(4 974)">
<title>G</title>
<polygon fill="white" stroke="transparent" points="-4,4 -4,-974 843,-974 843,4 -4,4"/>
<g id="clust1" class="cluster">
<title>cluster_root</title>
<g id="a_clust1"><a xlink:title="eventq_index=0&#10;full_system=false&#10;sim_quantum=0&#10;time_sync_enable=false&#10;time_sync_period=100000000000&#10;time_sync_spin_threshold=100000000">
<path fill="#bab6ae" stroke="#000000" d="M20,-8C20,-8 819,-8 819,-8 825,-8 831,-14 831,-20 831,-20 831,-950 831,-950 831,-956 825,-962 819,-962 819,-962 20,-962 20,-962 14,-962 8,-956 8,-950 8,-950 8,-20 8,-20 8,-14 14,-8 20,-8"/>
<text text-anchor="middle" x="419.5" y="-946.8" font-family="Arial" font-size="14.00" fill="#000000">root </text>
<text text-anchor="middle" x="419.5" y="-931.8" font-family="Arial" font-size="14.00" fill="#000000">: Root</text>
</a>
</g>
</g>
<g id="clust2" class="cluster">
<title>cluster_system</title>
<g id="a_clust2"><a xlink:title="auto_unlink_shared_backstore=false&#10;cache_line_size=64&#10;eventq_index=0&#10;exit_on_work_items=false&#10;init_param=0&#10;m5ops_base=0&#10;mem_mode=timing&#10;mem_ranges=0:8589934592&#10;memories=system.mem_ctrl.dram&#10;mmap_using_noreserve=false&#10;multi_thread=false&#10;&#10;um_work_ids=16&#10;&#13;eadfile=&#10;&#13;edirect_paths=&#10;shadow_rom_ranges=&#10;shared_backstore=&#10;symbolfile=&#10;thermal_components=&#10;thermal_model=Null&#10;work_begin_ckpt_count=0&#10;work_begin_cpu_id_exit=&#45;1&#10;work_begin_exit_count=0&#10;work_cpus_ckpt_count=0&#10;work_end_ckpt_count=0&#10;work_end_exit_count=0&#10;work_item_id=&#45;1&#10;workload=system.workload">
<path fill="#e4e7eb" stroke="#000000" d="M28,-16C28,-16 811,-16 811,-16 817,-16 823,-22 823,-28 823,-28 823,-904 823,-904 823,-910 817,-916 811,-916 811,-916 28,-916 28,-916 22,-916 16,-910 16,-904 16,-904 16,-28 16,-28 16,-22 22,-16 28,-16"/>
<text text-anchor="middle" x="419.5" y="-900.8" font-family="Arial" font-size="14.00" fill="#000000">system </text>
<text text-anchor="middle" x="419.5" y="-885.8" font-family="Arial" font-size="14.00" fill="#000000">: MySystem</text>
</a>
</g>
</g>
<g id="clust6" class="cluster">
<title>cluster_system_cpu</title>
<g id="a_clust6"><a xlink:title="LFSTSize=1024&#10;LQEntries=128&#10;LSQCheckLoads=true&#10;LSQDepCheckShift=4&#10;SQEntries=72&#10;SSITSize=1024&#10;activity=0&#10;backComSize=5&#10;branchPred=system.cpu.branchPred&#10;cacheLoadPorts=200&#10;cacheStorePorts=200&#10;checker=Null&#10;clk_domain=system.clk_domain&#10;commitToDecodeDelay=1&#10;commitToFetchDelay=1&#10;commitToIEWDelay=1&#10;commitToRenameDelay=1&#10;commitWidth=5&#10;cpu_id=&#45;1&#10;decodeToFetchDelay=1&#10;decodeToRenameDelay=1&#10;decodeWidth=6&#10;decoder=system.cpu.decoder&#10;dispatchWidth=6&#10;do_checkpoint_insts=true&#10;do_statistics_insts=true&#10;eventq_index=0&#10;fetchBufferSize=64&#10;fetchQueueSize=32&#10;fetchToDecodeDelay=1&#10;fetchTrapLatency=1&#10;fetchWidth=6&#10;forwardComSize=5&#10;fuPool=system.cpu.fuPool&#10;function_trace=false&#10;function_trace_start=0&#10;iewToCommitDelay=1&#10;iewToDecodeDelay=1&#10;iewToFetchDelay=1&#10;iewToRenameDelay=1&#10;interrupts=system.cpu.interrupts&#10;isa=system.cpu.isa&#10;issueToExecuteDelay=1&#10;issueWidth=4&#10;max_insts_all_threads=0&#10;max_insts_any_thread=600000000&#10;mmu=system.cpu.mmu&#10;&#10;eedsTSO=true&#10;&#10;umIQEntries=128&#10;&#10;umPhysCCRegs=256&#10;&#10;umPhysFloatRegs=256&#10;&#10;umPhysIntRegs=256&#10;&#10;umPhysMatRegs=2&#10;&#10;umPhysVecPredRegs=32&#10;&#10;umPhysVecRegs=256&#10;&#10;umROBEntries=352&#10;&#10;umRobs=1&#10;&#10;umThreads=1&#10;power_gating_on_idle=false&#10;power_model=&#10;power_state=system.cpu.power_state&#10;progress_interval=0&#10;pwr_gating_latency=300&#10;&#13;enameToDecodeDelay=1&#10;&#13;enameToFetchDelay=1&#10;&#13;enameToIEWDelay=2&#10;&#13;enameToROBDelay=1&#10;&#13;enameWidth=8&#10;simpoint_start_insts=&#10;smtCommitPolicy=RoundRobin&#10;smtFetchPolicy=RoundRobin&#10;smtIQPolicy=Partitioned&#10;smtIQThreshold=100&#10;smtLSQPolicy=Partitioned&#10;smtLSQThreshold=100&#10;smtNumFetchingThreads=1&#10;smtROBPolicy=Partitioned&#10;smtROBThreshold=100&#10;socket_id=0&#10;squashWidth=8&#10;store_set_clear_period=250000&#10;switched_out=false&#10;syscallRetryLatency=10000&#10;system=system&#10;tracer=system.cpu.tracer&#10;trapLatency=13&#10;wbWidth=4&#10;workload=system.cpu.workload">
<path fill="#bbc6d9" stroke="#000000" d="M304,-24C304,-24 803,-24 803,-24 809,-24 815,-30 815,-36 815,-36 815,-286 815,-286 815,-292 809,-298 803,-298 803,-298 304,-298 304,-298 298,-298 292,-292 292,-286 292,-286 292,-36 292,-36 292,-30 298,-24 304,-24"/>
<text text-anchor="middle" x="553.5" y="-282.8" font-family="Arial" font-size="14.00" fill="#000000">cpu </text>
<text text-anchor="middle" x="553.5" y="-267.8" font-family="Arial" font-size="14.00" fill="#000000">: X86O3CPU</text>
</a>
</g>
</g>
<g id="clust107" class="cluster">
<title>cluster_system_cpu_interrupts</title>
<g id="a_clust107"><a xlink:title="clk_domain=system.cpu.interrupts.clk_domain&#10;eventq_index=0&#10;int_latency=1000&#10;pio_latency=100000&#10;system=system">
<path fill="#bab6ae" stroke="#000000" d="M518,-162C518,-162 795,-162 795,-162 801,-162 807,-168 807,-174 807,-174 807,-240 807,-240 807,-246 801,-252 795,-252 795,-252 518,-252 518,-252 512,-252 506,-246 506,-240 506,-240 506,-174 506,-174 506,-168 512,-162 518,-162"/>
<text text-anchor="middle" x="656.5" y="-236.8" font-family="Arial" font-size="14.00" fill="#000000">interrupts </text>
<text text-anchor="middle" x="656.5" y="-221.8" font-family="Arial" font-size="14.00" fill="#000000">: X86LocalApic</text>
</a>
</g>
</g>
<g id="clust109" class="cluster">
<title>cluster_system_cpu_icache</title>
<g id="a_clust109"><a xlink:title="addr_ranges=0:18446744073709551615&#10;assoc=8&#10;clk_domain=system.clk_domain&#10;clusivity=mostly_incl&#10;compressor=Null&#10;data_latency=1&#10;demand_mshr_reserve=1&#10;eventq_index=0&#10;is_read_only=false&#10;max_miss_count=0&#10;move_contractions=true&#10;mshrs=4&#10;partitioning_manager=Null&#10;power_model=&#10;power_state=system.cpu.icache.power_state&#10;prefetcher=Null&#10;&#13;eplace_expansions=true&#10;&#13;eplacement_policy=system.cpu.icache.replacement_policy&#10;&#13;esponse_latency=1&#10;sequential_access=false&#10;size=32768&#10;system=system&#10;tag_latency=1&#10;tags=system.cpu.icache.tags&#10;tgts_per_mshr=20&#10;warmup_percentage=0&#10;write_allocator=Null&#10;write_buffers=8&#10;writeback_clean=false">
<path fill="#bab6ae" stroke="#000000" d="M506,-32C506,-32 668,-32 668,-32 674,-32 680,-38 680,-44 680,-44 680,-110 680,-110 680,-116 674,-122 668,-122 668,-122 506,-122 506,-122 500,-122 494,-116 494,-110 494,-110 494,-44 494,-44 494,-38 500,-32 506,-32"/>
<text text-anchor="middle" x="587" y="-106.8" font-family="Arial" font-size="14.00" fill="#000000">icache </text>
<text text-anchor="middle" x="587" y="-91.8" font-family="Arial" font-size="14.00" fill="#000000">: L1ICache</text>
</a>
</g>
</g>
<g id="clust115" class="cluster">
<title>cluster_system_cpu_dcache</title>
<g id="a_clust115"><a xlink:title="addr_ranges=0:18446744073709551615&#10;assoc=8&#10;clk_domain=system.clk_domain&#10;clusivity=mostly_incl&#10;compressor=Null&#10;data_latency=1&#10;demand_mshr_reserve=1&#10;eventq_index=0&#10;is_read_only=false&#10;max_miss_count=0&#10;move_contractions=true&#10;mshrs=8&#10;partitioning_manager=Null&#10;power_model=&#10;power_state=system.cpu.dcache.power_state&#10;prefetcher=Null&#10;&#13;eplace_expansions=true&#10;&#13;eplacement_policy=system.cpu.dcache.replacement_policy&#10;&#13;esponse_latency=1&#10;sequential_access=false&#10;size=32768&#10;system=system&#10;tag_latency=1&#10;tags=system.cpu.dcache.tags&#10;tgts_per_mshr=20&#10;warmup_percentage=0&#10;write_allocator=Null&#10;write_buffers=8&#10;writeback_clean=false">
<path fill="#bab6ae" stroke="#000000" d="M312,-32C312,-32 474,-32 474,-32 480,-32 486,-38 486,-44 486,-44 486,-110 486,-110 486,-116 480,-122 474,-122 474,-122 312,-122 312,-122 306,-122 300,-116 300,-110 300,-110 300,-44 300,-44 300,-38 306,-32 312,-32"/>
<text text-anchor="middle" x="393" y="-106.8" font-family="Arial" font-size="14.00" fill="#000000">dcache </text>
<text text-anchor="middle" x="393" y="-91.8" font-family="Arial" font-size="14.00" fill="#000000">: L1DCache</text>
</a>
</g>
</g>
<g id="clust130" class="cluster">
<title>cluster_system_membus</title>
<g id="a_clust130"><a xlink:title="clk_domain=system.clk_domain&#10;eventq_index=0&#10;forward_latency=4&#10;frontend_latency=3&#10;header_latency=1&#10;max_outstanding_snoops=512&#10;max_routing_table_size=512&#10;point_of_coherency=true&#10;point_of_unification=true&#10;power_model=&#10;power_state=system.membus.power_state&#10;&#13;esponse_latency=2&#10;snoop_filter=system.membus.snoop_filter&#10;snoop_response_latency=4&#10;system=system&#10;use_default_range=false&#10;width=16">
<path fill="#6f798c" stroke="#000000" d="M512,-696C512,-696 748,-696 748,-696 754,-696 760,-702 760,-708 760,-708 760,-774 760,-774 760,-780 754,-786 748,-786 748,-786 512,-786 512,-786 506,-786 500,-780 500,-774 500,-774 500,-708 500,-708 500,-702 506,-696 512,-696"/>
<text text-anchor="middle" x="630" y="-770.8" font-family="Arial" font-size="14.00" fill="#000000">membus </text>
<text text-anchor="middle" x="630" y="-755.8" font-family="Arial" font-size="14.00" fill="#000000">: SystemXBar</text>
</a>
</g>
</g>
<g id="clust133" class="cluster">
<title>cluster_system_l2cache</title>
<g id="a_clust133"><a xlink:title="addr_ranges=0:18446744073709551615&#10;assoc=8&#10;clk_domain=system.clk_domain&#10;clusivity=mostly_incl&#10;compressor=Null&#10;data_latency=10&#10;demand_mshr_reserve=1&#10;eventq_index=0&#10;is_read_only=false&#10;max_miss_count=0&#10;move_contractions=true&#10;mshrs=16&#10;partitioning_manager=Null&#10;power_model=&#10;power_state=system.l2cache.power_state&#10;prefetcher=Null&#10;&#13;eplace_expansions=true&#10;&#13;eplacement_policy=system.l2cache.replacement_policy&#10;&#13;esponse_latency=10&#10;sequential_access=false&#10;size=262144&#10;system=system&#10;tag_latency=10&#10;tags=system.l2cache.tags&#10;tgts_per_mshr=12&#10;warmup_percentage=0&#10;write_allocator=Null&#10;write_buffers=8&#10;writeback_clean=false">
<path fill="#bab6ae" stroke="#000000" d="M207,-306C207,-306 369,-306 369,-306 375,-306 381,-312 381,-318 381,-318 381,-384 381,-384 381,-390 375,-396 369,-396 369,-396 207,-396 207,-396 201,-396 195,-390 195,-384 195,-384 195,-318 195,-318 195,-312 201,-306 207,-306"/>
<text text-anchor="middle" x="288" y="-380.8" font-family="Arial" font-size="14.00" fill="#000000">l2cache </text>
<text text-anchor="middle" x="288" y="-365.8" font-family="Arial" font-size="14.00" fill="#000000">: L2Cache</text>
</a>
</g>
</g>
<g id="clust139" class="cluster">
<title>cluster_system_l3cache</title>
<g id="a_clust139"><a xlink:title="addr_ranges=0:18446744073709551615&#10;assoc=16&#10;clk_domain=system.clk_domain&#10;clusivity=mostly_incl&#10;compressor=Null&#10;data_latency=10&#10;demand_mshr_reserve=1&#10;eventq_index=0&#10;is_read_only=false&#10;max_miss_count=0&#10;move_contractions=true&#10;mshrs=32&#10;partitioning_manager=Null&#10;power_model=&#10;power_state=system.l3cache.power_state&#10;prefetcher=Null&#10;&#13;eplace_expansions=true&#10;&#13;eplacement_policy=system.l3cache.replacement_policy&#10;&#13;esponse_latency=10&#10;sequential_access=false&#10;size=2097152&#10;system=system&#10;tag_latency=10&#10;tags=system.l3cache.tags&#10;tgts_per_mshr=12&#10;warmup_percentage=0&#10;write_allocator=Null&#10;write_buffers=8&#10;writeback_clean=false">
<path fill="#bab6ae" stroke="#000000" d="M303,-566C303,-566 465,-566 465,-566 471,-566 477,-572 477,-578 477,-578 477,-644 477,-644 477,-650 471,-656 465,-656 465,-656 303,-656 303,-656 297,-656 291,-650 291,-644 291,-644 291,-578 291,-578 291,-572 297,-566 303,-566"/>
<text text-anchor="middle" x="384" y="-640.8" font-family="Arial" font-size="14.00" fill="#000000">l3cache </text>
<text text-anchor="middle" x="384" y="-625.8" font-family="Arial" font-size="14.00" fill="#000000">: L3Cache</text>
</a>
</g>
</g>
<g id="clust147" class="cluster">
<title>cluster_system_mem_ctrl</title>
<g id="a_clust147"><a xlink:title="clk_domain=system.clk_domain&#10;command_window=10000&#10;disable_sanity_check=false&#10;dram=system.mem_ctrl.dram&#10;eventq_index=0&#10;mem_sched_policy=frfcfs&#10;min_reads_per_switch=16&#10;min_writes_per_switch=16&#10;power_model=&#10;power_state=system.mem_ctrl.power_state&#10;qos_policy=Null&#10;qos_priorities=1&#10;qos_priority_escalation=false&#10;qos_q_policy=fifo&#10;qos_requestors= &#160;&#160;&#160;&#160;&#160;&#160;&#160;&#160;&#160;&#160;&#160;&#160;&#160;&#160;&#10;qos_syncro_scheduler=false&#10;qos_turnaround_policy=Null&#10;static_backend_latency=10000&#10;static_frontend_latency=10000&#10;system=system&#10;write_high_thresh_perc=85&#10;write_low_thresh_perc=50">
<path fill="#bab6ae" stroke="#000000" d="M719,-566C719,-566 772,-566 772,-566 778,-566 784,-572 784,-578 784,-578 784,-644 784,-644 784,-650 778,-656 772,-656 772,-656 719,-656 719,-656 713,-656 707,-650 707,-644 707,-644 707,-578 707,-578 707,-572 713,-566 719,-566"/>
<text text-anchor="middle" x="745.5" y="-640.8" font-family="Arial" font-size="14.00" fill="#000000">mem_ctrl </text>
<text text-anchor="middle" x="745.5" y="-625.8" font-family="Arial" font-size="14.00" fill="#000000">: MemCtrl</text>
</a>
</g>
</g>
<g id="clust151" class="cluster">
<title>cluster_system_l2bus</title>
<g id="a_clust151"><a xlink:title="clk_domain=system.clk_domain&#10;eventq_index=0&#10;forward_latency=0&#10;frontend_latency=1&#10;header_latency=1&#10;max_outstanding_snoops=512&#10;max_routing_table_size=512&#10;point_of_coherency=false&#10;point_of_unification=true&#10;power_model=&#10;power_state=system.l2bus.power_state&#10;&#13;esponse_latency=1&#10;snoop_filter=system.l2bus.snoop_filter&#10;snoop_response_latency=1&#10;system=system&#10;use_default_range=false&#10;width=32">
<path fill="#6f798c" stroke="#000000" d="M36,-162C36,-162 272,-162 272,-162 278,-162 284,-168 284,-174 284,-174 284,-240 284,-240 284,-246 278,-252 272,-252 272,-252 36,-252 36,-252 30,-252 24,-246 24,-240 24,-240 24,-174 24,-174 24,-168 30,-162 36,-162"/>
<text text-anchor="middle" x="154" y="-236.8" font-family="Arial" font-size="14.00" fill="#000000">l2bus </text>
<text text-anchor="middle" x="154" y="-221.8" font-family="Arial" font-size="14.00" fill="#000000">: L2XBar</text>
</a>
</g>
</g>
<g id="clust154" class="cluster">
<title>cluster_system_l3bus</title>
<g id="a_clust154"><a xlink:title="clk_domain=system.clk_domain&#10;eventq_index=0&#10;forward_latency=0&#10;frontend_latency=1&#10;header_latency=1&#10;max_outstanding_snoops=512&#10;max_routing_table_size=512&#10;point_of_coherency=false&#10;point_of_unification=true&#10;power_model=&#10;power_state=system.l3bus.power_state&#10;&#13;esponse_latency=1&#10;snoop_filter=system.l3bus.snoop_filter&#10;snoop_response_latency=1&#10;system=system&#10;use_default_range=false&#10;width=32">
<path fill="#6f798c" stroke="#000000" d="M180,-436C180,-436 416,-436 416,-436 422,-436 428,-442 428,-448 428,-448 428,-514 428,-514 428,-520 422,-526 416,-526 416,-526 180,-526 180,-526 174,-526 168,-520 168,-514 168,-514 168,-448 168,-448 168,-442 174,-436 180,-436"/>
<text text-anchor="middle" x="298" y="-510.8" font-family="Arial" font-size="14.00" fill="#000000">l3bus </text>
<text text-anchor="middle" x="298" y="-495.8" font-family="Arial" font-size="14.00" fill="#000000">: L2XBar</text>
</a>
</g>
</g>
<!-- system_system_port -->
<g id="node1" class="node">
<title>system_system_port</title>
<path fill="#b6b8bc" stroke="#000000" d="M595.5,-870C595.5,-870 528.5,-870 528.5,-870 522.5,-870 516.5,-864 516.5,-858 516.5,-858 516.5,-846 516.5,-846 516.5,-840 522.5,-834 528.5,-834 528.5,-834 595.5,-834 595.5,-834 601.5,-834 607.5,-840 607.5,-846 607.5,-846 607.5,-858 607.5,-858 607.5,-864 601.5,-870 595.5,-870"/>
<text text-anchor="middle" x="562" y="-848.3" font-family="Arial" font-size="14.00" fill="#000000">system_port</text>
</g>
<!-- system_membus_cpu_side_ports -->
<g id="node11" class="node">
<title>system_membus_cpu_side_ports</title>
<path fill="#586070" stroke="#000000" d="M604,-740C604,-740 520,-740 520,-740 514,-740 508,-734 508,-728 508,-728 508,-716 508,-716 508,-710 514,-704 520,-704 520,-704 604,-704 604,-704 610,-704 616,-710 616,-716 616,-716 616,-728 616,-728 616,-734 610,-740 604,-740"/>
<text text-anchor="middle" x="562" y="-718.3" font-family="Arial" font-size="14.00" fill="#000000">cpu_side_ports</text>
</g>
<!-- system_system_port&#45;&gt;system_membus_cpu_side_ports -->
<g id="edge1" class="edge">
<title>system_system_port&#45;&gt;system_membus_cpu_side_ports</title>
<path fill="none" stroke="black" d="M562,-833.74C562,-812.36 562,-775.69 562,-750.44"/>
<polygon fill="black" stroke="black" points="565.5,-750.4 562,-740.4 558.5,-750.4 565.5,-750.4"/>
</g>
<!-- system_cpu_icache_port -->
<g id="node2" class="node">
<title>system_cpu_icache_port</title>
<path fill="#959ead" stroke="#000000" d="M484,-206C484,-206 422,-206 422,-206 416,-206 410,-200 410,-194 410,-194 410,-182 410,-182 410,-176 416,-170 422,-170 422,-170 484,-170 484,-170 490,-170 496,-176 496,-182 496,-182 496,-194 496,-194 496,-200 490,-206 484,-206"/>
<text text-anchor="middle" x="453" y="-184.3" font-family="Arial" font-size="14.00" fill="#000000">icache_port</text>
</g>
<!-- system_cpu_icache_cpu_side -->
<g id="node7" class="node">
<title>system_cpu_icache_cpu_side</title>
<path fill="#94918b" stroke="#000000" d="M659.5,-76C659.5,-76 612.5,-76 612.5,-76 606.5,-76 600.5,-70 600.5,-64 600.5,-64 600.5,-52 600.5,-52 600.5,-46 606.5,-40 612.5,-40 612.5,-40 659.5,-40 659.5,-40 665.5,-40 671.5,-46 671.5,-52 671.5,-52 671.5,-64 671.5,-64 671.5,-70 665.5,-76 659.5,-76"/>
<text text-anchor="middle" x="636" y="-54.3" font-family="Arial" font-size="14.00" fill="#000000">cpu_side</text>
</g>
<!-- system_cpu_icache_port&#45;&gt;system_cpu_icache_cpu_side -->
<g id="edge2" class="edge">
<title>system_cpu_icache_port&#45;&gt;system_cpu_icache_cpu_side</title>
<path fill="none" stroke="black" d="M485.84,-169.97C491.22,-167.26 496.75,-164.52 502,-162 541.1,-143.25 557.46,-149.49 591,-122 603.47,-111.79 614.13,-97.32 621.94,-84.83"/>
<polygon fill="black" stroke="black" points="624.99,-86.55 627.11,-76.17 618.98,-82.96 624.99,-86.55"/>
</g>
<!-- system_cpu_dcache_port -->
<g id="node3" class="node">
<title>system_cpu_dcache_port</title>
<path fill="#959ead" stroke="#000000" d="M379.5,-206C379.5,-206 312.5,-206 312.5,-206 306.5,-206 300.5,-200 300.5,-194 300.5,-194 300.5,-182 300.5,-182 300.5,-176 306.5,-170 312.5,-170 312.5,-170 379.5,-170 379.5,-170 385.5,-170 391.5,-176 391.5,-182 391.5,-182 391.5,-194 391.5,-194 391.5,-200 385.5,-206 379.5,-206"/>
<text text-anchor="middle" x="346" y="-184.3" font-family="Arial" font-size="14.00" fill="#000000">dcache_port</text>
</g>
<!-- system_cpu_dcache_cpu_side -->
<g id="node9" class="node">
<title>system_cpu_dcache_cpu_side</title>
<path fill="#94918b" stroke="#000000" d="M465.5,-76C465.5,-76 418.5,-76 418.5,-76 412.5,-76 406.5,-70 406.5,-64 406.5,-64 406.5,-52 406.5,-52 406.5,-46 412.5,-40 418.5,-40 418.5,-40 465.5,-40 465.5,-40 471.5,-40 477.5,-46 477.5,-52 477.5,-52 477.5,-64 477.5,-64 477.5,-70 471.5,-76 465.5,-76"/>
<text text-anchor="middle" x="442" y="-54.3" font-family="Arial" font-size="14.00" fill="#000000">cpu_side</text>
</g>
<!-- system_cpu_dcache_port&#45;&gt;system_cpu_dcache_cpu_side -->
<g id="edge3" class="edge">
<title>system_cpu_dcache_port&#45;&gt;system_cpu_dcache_cpu_side</title>
<path fill="none" stroke="black" d="M359.85,-169.78C370.23,-156.78 384.71,-138.42 397,-122 406.12,-109.83 415.97,-96.11 424.12,-84.58"/>
<polygon fill="black" stroke="black" points="427.08,-86.45 429.98,-76.26 421.36,-82.42 427.08,-86.45"/>
</g>
<!-- system_cpu_interrupts_int_requestor -->
<g id="node4" class="node">
<title>system_cpu_interrupts_int_requestor</title>
<path fill="#94918b" stroke="#000000" d="M597.5,-206C597.5,-206 526.5,-206 526.5,-206 520.5,-206 514.5,-200 514.5,-194 514.5,-194 514.5,-182 514.5,-182 514.5,-176 520.5,-170 526.5,-170 526.5,-170 597.5,-170 597.5,-170 603.5,-170 609.5,-176 609.5,-182 609.5,-182 609.5,-194 609.5,-194 609.5,-200 603.5,-206 597.5,-206"/>
<text text-anchor="middle" x="562" y="-184.3" font-family="Arial" font-size="14.00" fill="#000000">int_requestor</text>
</g>
<!-- system_cpu_interrupts_int_responder -->
<g id="node5" class="node">
<title>system_cpu_interrupts_int_responder</title>
<path fill="#94918b" stroke="#000000" d="M714.5,-206C714.5,-206 639.5,-206 639.5,-206 633.5,-206 627.5,-200 627.5,-194 627.5,-194 627.5,-182 627.5,-182 627.5,-176 633.5,-170 639.5,-170 639.5,-170 714.5,-170 714.5,-170 720.5,-170 726.5,-176 726.5,-182 726.5,-182 726.5,-194 726.5,-194 726.5,-200 720.5,-206 714.5,-206"/>
<text text-anchor="middle" x="677" y="-184.3" font-family="Arial" font-size="14.00" fill="#000000">int_responder</text>
</g>
<!-- system_cpu_interrupts_pio -->
<g id="node6" class="node">
<title>system_cpu_interrupts_pio</title>
<path fill="#94918b" stroke="#000000" d="M787,-206C787,-206 757,-206 757,-206 751,-206 745,-200 745,-194 745,-194 745,-182 745,-182 745,-176 751,-170 757,-170 757,-170 787,-170 787,-170 793,-170 799,-176 799,-182 799,-182 799,-194 799,-194 799,-200 793,-206 787,-206"/>
<text text-anchor="middle" x="772" y="-184.3" font-family="Arial" font-size="14.00" fill="#000000">pio</text>
</g>
<!-- system_cpu_icache_mem_side -->
<g id="node8" class="node">
<title>system_cpu_icache_mem_side</title>
<path fill="#94918b" stroke="#000000" d="M570,-76C570,-76 514,-76 514,-76 508,-76 502,-70 502,-64 502,-64 502,-52 502,-52 502,-46 508,-40 514,-40 514,-40 570,-40 570,-40 576,-40 582,-46 582,-52 582,-52 582,-64 582,-64 582,-70 576,-76 570,-76"/>
<text text-anchor="middle" x="542" y="-54.3" font-family="Arial" font-size="14.00" fill="#000000">mem_side</text>
</g>
<!-- system_cpu_dcache_mem_side -->
<g id="node10" class="node">
<title>system_cpu_dcache_mem_side</title>
<path fill="#94918b" stroke="#000000" d="M376,-76C376,-76 320,-76 320,-76 314,-76 308,-70 308,-64 308,-64 308,-52 308,-52 308,-46 314,-40 320,-40 320,-40 376,-40 376,-40 382,-40 388,-46 388,-52 388,-52 388,-64 388,-64 388,-70 382,-76 376,-76"/>
<text text-anchor="middle" x="348" y="-54.3" font-family="Arial" font-size="14.00" fill="#000000">mem_side</text>
</g>
<!-- system_membus_cpu_side_ports&#45;&gt;system_cpu_interrupts_int_requestor -->
<g id="edge4" class="edge">
<title>system_membus_cpu_side_ports&#45;&gt;system_cpu_interrupts_int_requestor</title>
<path fill="none" stroke="black" d="M562,-693.65C562,-598.43 562,-282.97 562,-206.03"/>
<polygon fill="black" stroke="black" points="558.5,-693.9 562,-703.9 565.5,-693.9 558.5,-693.9"/>
</g>
<!-- system_l3cache_mem_side -->
<g id="node16" class="node">
<title>system_l3cache_mem_side</title>
<path fill="#94918b" stroke="#000000" d="M367,-610C367,-610 311,-610 311,-610 305,-610 299,-604 299,-598 299,-598 299,-586 299,-586 299,-580 305,-574 311,-574 311,-574 367,-574 367,-574 373,-574 379,-580 379,-586 379,-586 379,-598 379,-598 379,-604 373,-610 367,-610"/>
<text text-anchor="middle" x="339" y="-588.3" font-family="Arial" font-size="14.00" fill="#000000">mem_side</text>
</g>
<!-- system_membus_cpu_side_ports&#45;&gt;system_l3cache_mem_side -->
<g id="edge5" class="edge">
<title>system_membus_cpu_side_ports&#45;&gt;system_l3cache_mem_side</title>
<path fill="none" stroke="black" d="M497.67,-705.83C463.21,-695.59 421.33,-679.56 389,-656 372.07,-643.67 357.81,-624.16 348.91,-610.11"/>
<polygon fill="black" stroke="black" points="497.06,-709.3 507.64,-708.7 498.99,-702.57 497.06,-709.3"/>
</g>
<!-- system_membus_mem_side_ports -->
<g id="node12" class="node">
<title>system_membus_mem_side_ports</title>
<path fill="#586070" stroke="#000000" d="M740,-740C740,-740 646,-740 646,-740 640,-740 634,-734 634,-728 634,-728 634,-716 634,-716 634,-710 640,-704 646,-704 646,-704 740,-704 740,-704 746,-704 752,-710 752,-716 752,-716 752,-728 752,-728 752,-734 746,-740 740,-740"/>
<text text-anchor="middle" x="693" y="-718.3" font-family="Arial" font-size="14.00" fill="#000000">mem_side_ports</text>
</g>
<!-- system_membus_mem_side_ports&#45;&gt;system_cpu_interrupts_int_responder -->
<g id="edge7" class="edge">
<title>system_membus_mem_side_ports&#45;&gt;system_cpu_interrupts_int_responder</title>
<path fill="none" stroke="black" d="M692.49,-703.9C690.17,-626.83 680.68,-311.37 677.82,-216.27"/>
<polygon fill="black" stroke="black" points="681.31,-215.92 677.51,-206.03 674.31,-216.14 681.31,-215.92"/>
</g>
<!-- system_membus_mem_side_ports&#45;&gt;system_cpu_interrupts_pio -->
<g id="edge6" class="edge">
<title>system_membus_mem_side_ports&#45;&gt;system_cpu_interrupts_pio</title>
<path fill="none" stroke="black" d="M693.46,-703.74C694.36,-675.05 696.86,-615.78 703,-566 719.29,-433.93 752.24,-278.13 765.88,-216.27"/>
<polygon fill="black" stroke="black" points="769.37,-216.7 768.12,-206.18 762.53,-215.18 769.37,-216.7"/>
</g>
<!-- system_mem_ctrl_port -->
<g id="node17" class="node">
<title>system_mem_ctrl_port</title>
<path fill="#94918b" stroke="#000000" d="M758,-610C758,-610 728,-610 728,-610 722,-610 716,-604 716,-598 716,-598 716,-586 716,-586 716,-580 722,-574 728,-574 728,-574 758,-574 758,-574 764,-574 770,-580 770,-586 770,-586 770,-598 770,-598 770,-604 764,-610 758,-610"/>
<text text-anchor="middle" x="743" y="-588.3" font-family="Arial" font-size="14.00" fill="#000000">port</text>
</g>
<!-- system_membus_mem_side_ports&#45;&gt;system_mem_ctrl_port -->
<g id="edge8" class="edge">
<title>system_membus_mem_side_ports&#45;&gt;system_mem_ctrl_port</title>
<path fill="none" stroke="black" d="M699.74,-703.74C708.17,-682.17 722.67,-645.03 732.54,-619.77"/>
<polygon fill="black" stroke="black" points="735.83,-620.99 736.2,-610.4 729.31,-618.44 735.83,-620.99"/>
</g>
<!-- system_l2cache_cpu_side -->
<g id="node13" class="node">
<title>system_l2cache_cpu_side</title>
<path fill="#94918b" stroke="#000000" d="M360.5,-350C360.5,-350 313.5,-350 313.5,-350 307.5,-350 301.5,-344 301.5,-338 301.5,-338 301.5,-326 301.5,-326 301.5,-320 307.5,-314 313.5,-314 313.5,-314 360.5,-314 360.5,-314 366.5,-314 372.5,-320 372.5,-326 372.5,-326 372.5,-338 372.5,-338 372.5,-344 366.5,-350 360.5,-350"/>
<text text-anchor="middle" x="337" y="-328.3" font-family="Arial" font-size="14.00" fill="#000000">cpu_side</text>
</g>
<!-- system_l2bus_mem_side_ports -->
<g id="node19" class="node">
<title>system_l2bus_mem_side_ports</title>
<path fill="#586070" stroke="#000000" d="M138,-206C138,-206 44,-206 44,-206 38,-206 32,-200 32,-194 32,-194 32,-182 32,-182 32,-176 38,-170 44,-170 44,-170 138,-170 138,-170 144,-170 150,-176 150,-182 150,-182 150,-194 150,-194 150,-200 144,-206 138,-206"/>
<text text-anchor="middle" x="91" y="-184.3" font-family="Arial" font-size="14.00" fill="#000000">mem_side_ports</text>
</g>
<!-- system_l2cache_cpu_side&#45;&gt;system_l2bus_mem_side_ports -->
<g id="edge9" class="edge">
<title>system_l2cache_cpu_side&#45;&gt;system_l2bus_mem_side_ports</title>
<path fill="none" stroke="black" d="M301.52,-309.45C298.37,-308.11 295.17,-306.93 292,-306 263.57,-297.72 184.45,-313.14 159,-298 124.3,-277.36 104.68,-231.42 96.16,-206.27"/>
<polygon fill="black" stroke="black" points="300.2,-312.7 310.73,-313.86 303.23,-306.39 300.2,-312.7"/>
</g>
<!-- system_l2cache_mem_side -->
<g id="node14" class="node">
<title>system_l2cache_mem_side</title>
<path fill="#94918b" stroke="#000000" d="M271,-350C271,-350 215,-350 215,-350 209,-350 203,-344 203,-338 203,-338 203,-326 203,-326 203,-320 209,-314 215,-314 215,-314 271,-314 271,-314 277,-314 283,-320 283,-326 283,-326 283,-338 283,-338 283,-344 277,-350 271,-350"/>
<text text-anchor="middle" x="243" y="-328.3" font-family="Arial" font-size="14.00" fill="#000000">mem_side</text>
</g>
<!-- system_l3cache_cpu_side -->
<g id="node15" class="node">
<title>system_l3cache_cpu_side</title>
<path fill="#94918b" stroke="#000000" d="M456.5,-610C456.5,-610 409.5,-610 409.5,-610 403.5,-610 397.5,-604 397.5,-598 397.5,-598 397.5,-586 397.5,-586 397.5,-580 403.5,-574 409.5,-574 409.5,-574 456.5,-574 456.5,-574 462.5,-574 468.5,-580 468.5,-586 468.5,-586 468.5,-598 468.5,-598 468.5,-604 462.5,-610 456.5,-610"/>
<text text-anchor="middle" x="433" y="-588.3" font-family="Arial" font-size="14.00" fill="#000000">cpu_side</text>
</g>
<!-- system_l3bus_mem_side_ports -->
<g id="node21" class="node">
<title>system_l3bus_mem_side_ports</title>
<path fill="#586070" stroke="#000000" d="M282,-480C282,-480 188,-480 188,-480 182,-480 176,-474 176,-468 176,-468 176,-456 176,-456 176,-450 182,-444 188,-444 188,-444 282,-444 282,-444 288,-444 294,-450 294,-456 294,-456 294,-468 294,-468 294,-474 288,-480 282,-480"/>
<text text-anchor="middle" x="235" y="-458.3" font-family="Arial" font-size="14.00" fill="#000000">mem_side_ports</text>
</g>
<!-- system_l3cache_cpu_side&#45;&gt;system_l3bus_mem_side_ports -->
<g id="edge10" class="edge">
<title>system_l3cache_cpu_side&#45;&gt;system_l3bus_mem_side_ports</title>
<path fill="none" stroke="black" d="M393.45,-568.83C391.61,-567.87 389.79,-566.92 388,-566 350.84,-546.96 337.61,-549.35 303,-526 283.26,-512.68 263.61,-493.7 250.55,-480.06"/>
<polygon fill="black" stroke="black" points="392.18,-572.13 402.65,-573.78 395.5,-565.96 392.18,-572.13"/>
</g>
<!-- system_l2bus_cpu_side_ports -->
<g id="node18" class="node">
<title>system_l2bus_cpu_side_ports</title>
<path fill="#586070" stroke="#000000" d="M264,-206C264,-206 180,-206 180,-206 174,-206 168,-200 168,-194 168,-194 168,-182 168,-182 168,-176 174,-170 180,-170 180,-170 264,-170 264,-170 270,-170 276,-176 276,-182 276,-182 276,-194 276,-194 276,-200 270,-206 264,-206"/>
<text text-anchor="middle" x="222" y="-184.3" font-family="Arial" font-size="14.00" fill="#000000">cpu_side_ports</text>
</g>
<!-- system_l2bus_cpu_side_ports&#45;&gt;system_cpu_icache_mem_side -->
<g id="edge11" class="edge">
<title>system_l2bus_cpu_side_ports&#45;&gt;system_cpu_icache_mem_side</title>
<path fill="none" stroke="black" d="M273.69,-166.49C278.49,-164.87 283.31,-163.34 288,-162 375.99,-136.81 411.41,-168.91 490,-122 508.51,-110.95 523.37,-90.81 532.39,-76.27"/>
<polygon fill="black" stroke="black" points="272.17,-163.32 263.9,-169.94 274.49,-169.92 272.17,-163.32"/>
</g>
<!-- system_l2bus_cpu_side_ports&#45;&gt;system_cpu_dcache_mem_side -->
<g id="edge12" class="edge">
<title>system_l2bus_cpu_side_ports&#45;&gt;system_cpu_dcache_mem_side</title>
<path fill="none" stroke="black" d="M246.24,-162.37C271.06,-137.16 309.01,-98.6 330.87,-76.4"/>
<polygon fill="black" stroke="black" points="243.51,-160.16 238.99,-169.74 248.5,-165.07 243.51,-160.16"/>
</g>
<!-- system_l3bus_cpu_side_ports -->
<g id="node20" class="node">
<title>system_l3bus_cpu_side_ports</title>
<path fill="#586070" stroke="#000000" d="M408,-480C408,-480 324,-480 324,-480 318,-480 312,-474 312,-468 312,-468 312,-456 312,-456 312,-450 318,-444 324,-444 324,-444 408,-444 408,-444 414,-444 420,-450 420,-456 420,-456 420,-468 420,-468 420,-474 414,-480 408,-480"/>
<text text-anchor="middle" x="366" y="-458.3" font-family="Arial" font-size="14.00" fill="#000000">cpu_side_ports</text>
</g>
<!-- system_l3bus_cpu_side_ports&#45;&gt;system_l2cache_mem_side -->
<g id="edge13" class="edge">
<title>system_l3bus_cpu_side_ports&#45;&gt;system_l2cache_mem_side</title>
<path fill="none" stroke="black" d="M337.17,-437.35C323.3,-425.47 306.74,-410.54 293,-396 279.19,-381.38 265.1,-363.28 255.41,-350.23"/>
<polygon fill="black" stroke="black" points="335.1,-440.17 344.99,-443.96 339.62,-434.83 335.1,-440.17"/>
</g>
</g>
</svg>
